<?xml version="1.0" encoding="UTF-8"?>
<svg id="Layer_2" data-name="Layer 2" xmlns="http://www.w3.org/2000/svg" viewBox="0 0 555.28 18.65">
  <defs>
    <style>
      .cls-1 {
        fill: #8dc63f;
      }

      .cls-2 {
        fill: #00a3de;
      }
    </style>
  </defs>
  <g id="Layer_2-2" data-name="Layer 2">
    <g>
      <path class="cls-2" d="M173.15,0v3.03c1.86-.55,3.89-.22,5.53.92,1.53,1.06,2.54,2.69,2.78,4.48.25,1.89-.32,3.79-1.56,5.21-1.66,1.89-4.36,2.69-6.75,1.98v3.03h382.12V0H173.15Z"/>
      <path class="cls-1" d="M175.96,4.36c-1.67-.33-3.19.19-4.31,1.17V.07H0v18.51h171.65v-5.47c.89.78,2.04,1.27,3.32,1.27,3.14,0,5.61-2.85,4.95-6.11-.39-1.96-2-3.53-3.96-3.91Z"/>
    </g>
  </g>
</svg>