<?xml version="1.0" encoding="UTF-8"?>
<svg id="Layer_2" data-name="Layer 2" xmlns="http://www.w3.org/2000/svg" viewBox="0 0 164.75 164.75">
  <defs>
    <style>
      .cls-1 {
        fill: #8dc63f;
      }

      .cls-2 {
        fill: #00a3de;
      }
    </style>
  </defs>
  <g id="Layer_2-2" data-name="Layer 2">
    <g>
      <path class="cls-2" d="M82.37,0v29.6c0,1.46-1.55,2.41-2.84,1.72-1.84-.99-3.99-1.48-6.28-1.27-5.48.48-9.86,5.03-10.16,10.52-.35,6.47,4.79,11.82,11.18,11.82,1.89,0,3.67-.47,5.23-1.3,1.3-.69,2.87.23,2.87,1.7v59.19c0,1.46,1.55,2.41,2.84,1.72,1.84-.99,3.99-1.48,6.28-1.27,5.48.48,9.86,5.03,10.16,10.52.35,6.47-4.79,11.82-11.18,11.82-1.89,0-3.67-.47-5.23-1.3-1.3-.69-2.87.23-2.87,1.7v29.6c45.49,0,82.37-36.88,82.37-82.37S127.87,0,82.37,0Z"/>
      <path class="cls-1" d="M82.37,164.75v-29.6c0-1.46,1.55-2.41,2.84-1.72,1.84.99,3.99,1.48,6.28,1.27,5.48-.48,9.86-5.03,10.16-10.52.35-6.47-4.79-11.82-11.18-11.82-1.89,0-3.67.47-5.23,1.3-1.3.69-2.87-.23-2.87-1.7v-59.19c0-1.46-1.55-2.41-2.84-1.72-1.84.99-3.99,1.48-6.28,1.27-5.48-.48-9.86-5.03-10.16-10.52-.35-6.47,4.79-11.82,11.18-11.82,1.89,0,3.67.47,5.23,1.3,1.3.69,2.87-.23,2.87-1.7V0C36.88,0,0,36.88,0,82.37s36.88,82.37,82.37,82.37Z"/>
    </g>
  </g>
</svg>