<?xml version="1.0" encoding="UTF-8"?>
<svg id="Layer_2" data-name="Layer 2" xmlns="http://www.w3.org/2000/svg" viewBox="0 0 164.79 164.75">
  <defs>
    <style>
      .cls-1 {
        fill: #64b5e5;
      }

      .cls-2 {
        fill: #98c9ec;
      }

      .cls-3 {
        fill: #8dc63f;
      }

      .cls-4 {
        fill: #cae1f5;
      }

      .cls-5 {
        fill: #00a3de;
      }
    </style>
  </defs>
  <g id="Layer_2-2" data-name="Layer 2">
    <g>
      <path class="cls-4" d="M113.65,121.86c2.15-.22,4.26-1.1,6.03-2.69,3.63-3.28,4.51-8.75,2.08-13-3.17-5.56-10.35-7-15.39-3.34-1.57,1.14-2.73,2.64-3.46,4.3-.42.97-1.73,1.11-2.35.26l-18.17-25.01-18.17,25.01c-.63.86-.06,2.05.99,2.16,2.15.22,4.26,1.1,6.03,2.69,3.63,3.28,4.51,8.75,2.09,13-3.17,5.56-10.35,7-15.39,3.34-1.57-1.14-2.73-2.64-3.46-4.3-.42-.97-1.73-1.11-2.35-.26l-18.16,25c13.59,9.89,30.32,15.73,48.42,15.73s34.83-5.84,48.42-15.73l-18.16-24.99c-.63-.86-.06-2.05.99-2.16Z"/>
      <path class="cls-2" d="M54.5,124.3c.87,1.98,2.36,3.72,4.42,4.9,4.24,2.44,9.71,1.58,13.01-2.03,4.31-4.74,3.46-12.01-1.58-15.67-1.57-1.14-3.35-1.79-5.16-1.96-1.05-.1-1.59-1.3-.97-2.15l18.17-25.01-29.4-9.55c-1.01-.33-1.97.57-1.75,1.61.46,2.11.28,4.39-.7,6.57-2,4.47-6.93,6.99-11.72,6-6.27-1.3-9.86-7.68-7.94-13.6.6-1.85,1.66-3.42,3.02-4.62.79-.7.52-1.99-.48-2.31l-29.39-9.55c-5.21,15.98-5.59,33.7,0,50.91,5.59,17.21,16.32,31.32,29.92,41.19l18.16-24.99c.63-.86,1.93-.7,2.36.28Z"/>
      <path class="cls-1" d="M33.9,68.8c-1.61,1.44-2.81,3.39-3.3,5.72-1.01,4.79,1.5,9.73,5.95,11.74,5.84,2.63,12.49-.42,14.41-6.34.6-1.85.66-3.74.27-5.51-.23-1.03.75-1.92,1.75-1.59l29.4,9.55v-30.91c0-1.06-1.15-1.7-2.07-1.16-1.87,1.09-4.09,1.62-6.46,1.37-4.86-.52-8.79-4.43-9.33-9.29-.7-6.36,4.26-11.75,10.48-11.75,1.94,0,3.76.53,5.32,1.44.91.53,2.05-.12,2.05-1.17V0c-16.81-.01-33.78,5.1-48.42,15.73-14.64,10.64-24.74,25.2-29.92,41.19l29.38,9.55c1.01.33,1.26,1.62.46,2.33Z"/>
      <path class="cls-5" d="M80.32,32.06c-1.87-1.09-4.09-1.62-6.46-1.37-4.86.52-8.79,4.43-9.33,9.29-.7,6.36,4.26,11.75,10.48,11.75,1.94,0,3.76-.53,5.32-1.44.91-.53,2.05.12,2.05,1.17v30.92l29.4-9.55c1.01-.33,1.26-1.62.46-2.33-1.61-1.44-2.81-3.39-3.3-5.72-1.01-4.79,1.49-9.73,5.95-11.74,5.84-2.63,12.49.42,14.41,6.34.6,1.85.66,3.74.27,5.51-.23,1.03.75,1.92,1.75,1.59l29.39-9.55c-5.18-15.99-15.28-30.55-29.92-41.19C116.17,5.1,99.2-.01,82.39,0v30.9c0,1.06-1.15,1.7-2.07,1.16Z"/>
      <path class="cls-3" d="M129.61,64.85c.46-2.11.28-4.39-.7-6.57-2-4.47-6.93-6.99-11.72-6-6.27,1.3-9.86,7.68-7.93,13.6.6,1.85,1.66,3.42,3.02,4.62.79.7.52,1.99-.48,2.31l-29.4,9.55,18.17,25.01c.63.86,1.93.7,2.36-.28.87-1.98,2.36-3.72,4.42-4.9,4.24-2.44,9.71-1.59,13.01,2.03,4.31,4.74,3.46,12.01-1.58,15.67-1.57,1.14-3.35,1.79-5.16,1.96-1.05.1-1.59,1.3-.97,2.15l18.16,25c13.61-9.87,24.33-23.98,29.92-41.19,5.59-17.21,5.21-34.93,0-50.91l-29.38,9.55c-1.01.33-1.97-.57-1.75-1.61Z"/>
    </g>
  </g>
</svg>