<?xml version="1.0" encoding="UTF-8"?>
<svg id="Layer_2" data-name="Layer 2" xmlns="http://www.w3.org/2000/svg" viewBox="0 0 164.78 164.76">
  <defs>
    <style>
      .cls-1 {
        fill: #c4df9b;
      }

      .cls-2 {
        fill: #8dc63f;
      }

      .cls-3 {
        fill: #e0eecb;
      }
    </style>
  </defs>
  <g id="Layer_2-2" data-name="Layer 2">
    <g>
      <path class="cls-1" d="M128.66,105.86c1.84-1.21,3.37-2.96,4.33-5.18,2.18-5.01.57-10.98-3.83-14.22-5.8-4.27-13.84-2.46-17.34,3.6-.94,1.63-1.45,3.39-1.56,5.15-.09,1.45-1.65,2.32-2.91,1.59l-24.97-14.42-24.93,14.39c-1.25.72-1.35,2.53-.15,3.32,1.84,1.21,3.37,2.96,4.33,5.18,2.18,5.01.57,10.98-3.83,14.22-5.8,4.27-13.84,2.46-17.34-3.6-.94-1.63-1.45-3.39-1.56-5.15-.09-1.45-1.65-2.32-2.91-1.59l-24.97,14.42c14.24,24.62,40.86,41.18,71.35,41.18s57.1-16.56,71.35-41.18l-24.93-14.39c-1.25-.72-1.35-2.53-.15-3.32Z"/>
      <path class="cls-2" d="M38.92,110.72c.13,2.2.88,4.39,2.32,6.34,3.25,4.39,9.22,5.98,14.22,3.8,6.6-2.89,9.06-10.75,5.56-16.81-.94-1.63-2.21-2.95-3.68-3.92-1.21-.8-1.18-2.58.08-3.31l24.97-14.42v-28.78c0-1.44-1.51-2.44-2.8-1.79-1.97.98-4.25,1.44-6.65,1.16-5.42-.62-9.8-5-10.4-10.42-.79-7.16,4.79-13.22,11.78-13.22,1.88,0,3.66.44,5.24,1.23,1.3.65,2.83-.27,2.83-1.72V0C53.95.03,26.29,14.8,11.05,41.2c-15.24,26.4-14.21,57.74,0,82.38l24.93-14.39c1.25-.72,2.87.09,2.95,1.53Z"/>
      <path class="cls-3" d="M79.58,30.57c-1.97-.98-4.25-1.44-6.65-1.16-5.42.62-9.8,5-10.4,10.42-.8,7.16,4.79,13.22,11.78,13.22,1.88,0,3.66-.44,5.24-1.23,1.3-.65,2.83.27,2.83,1.72v28.84l24.93,14.39c1.25.72,2.87-.09,2.95-1.53.13-2.2.88-4.39,2.32-6.34,3.25-4.39,9.23-5.98,14.22-3.79,6.6,2.89,9.05,10.75,5.55,16.81-.94,1.63-2.21,2.95-3.68,3.92-1.21.8-1.18,2.58.08,3.31l24.97,14.42c14.2-24.64,15.23-55.98,0-82.38C138.48,14.8,110.83.03,82.39,0v28.78c0,1.44-1.51,2.43-2.8,1.79Z"/>
    </g>
  </g>
</svg>