<?xml version="1.0" encoding="UTF-8"?>
<svg id="Layer_2" data-name="Layer 2" xmlns="http://www.w3.org/2000/svg" viewBox="0 0 164.75 164.75">
  <defs>
    <style>
      .cls-1 {
        fill: #64b5e5;
      }

      .cls-2 {
        fill: #98c9ec;
      }

      .cls-3 {
        fill: #cae1f5;
      }

      .cls-4 {
        fill: #00a3de;
      }
    </style>
  </defs>
  <g id="Layer_2-2" data-name="Layer 2">
    <g>
      <path class="cls-2" d="M132.72,80.42c2.01-2.36,3.12-5.51,2.8-8.92-.53-5.59-5.01-10.15-10.59-10.77-7.25-.8-13.38,4.85-13.38,11.94,0,2.96,1.08,5.67,2.86,7.76.65.77.08,1.95-.92,1.95h-31.11v31.11c0,1.01,1.18,1.57,1.95.92,2.36-2.01,5.51-3.12,8.92-2.8,5.59.53,10.15,5.01,10.77,10.59.8,7.25-4.85,13.38-11.94,13.38-2.96,0-5.67-1.08-7.76-2.86-.77-.65-1.95-.08-1.95.92v31.11c45.49,0,82.37-36.88,82.37-82.37h-31.11c-1.01,0-1.57-1.18-.92-1.95Z"/>
      <path class="cls-3" d="M84.33,132.72c2.36,2.01,5.51,3.12,8.92,2.8,5.59-.53,10.15-5.01,10.77-10.59.8-7.25-4.85-13.38-11.94-13.38-2.96,0-5.67,1.08-7.76,2.86-.77.65-1.95.08-1.95-.92v-31.11h-31.11c-1.01,0-1.57,1.18-.92,1.95,2.01,2.36,3.12,5.51,2.8,8.92-.53,5.59-5.01,10.15-10.59,10.77-7.25.8-13.38-4.85-13.38-11.94,0-2.96,1.08-5.67,2.86-7.76.65-.77.08-1.95-.92-1.95H0C0,127.87,36.88,164.75,82.37,164.75v-31.11c0-1.01,1.18-1.57,1.95-.92Z"/>
      <path class="cls-4" d="M32.03,84.33c-2.01,2.36-3.12,5.51-2.8,8.92.53,5.59,5.01,10.15,10.59,10.77,7.25.8,13.38-4.85,13.38-11.94,0-2.96-1.08-5.67-2.86-7.76-.65-.77-.08-1.95.92-1.95h31.11v-31.11c0-1.01-1.18-1.57-1.95-.92-2.36,2.01-5.51,3.12-8.92,2.8-5.59-.53-10.15-5.01-10.77-10.59-.8-7.25,4.85-13.38,11.94-13.38,2.96,0,5.67,1.08,7.76,2.86.77.65,1.95.08,1.95-.92V0C36.88,0,0,36.88,0,82.37h31.11c1.01,0,1.57,1.18.92,1.95Z"/>
      <path class="cls-1" d="M80.42,32.03c-2.36-2.01-5.51-3.12-8.92-2.8-5.59.53-10.15,5.01-10.77,10.59-.8,7.25,4.85,13.38,11.94,13.38,2.96,0,5.67-1.08,7.76-2.86.77-.65,1.95-.08,1.95.92v31.11h31.11c1.01,0,1.57-1.18.92-1.95-2.01-2.36-3.12-5.51-2.8-8.92.53-5.59,5.01-10.15,10.59-10.77,7.25-.8,13.38,4.85,13.38,11.94,0,2.96-1.08,5.67-2.86,7.76-.65.77-.08,1.95.92,1.95h31.11C164.75,36.88,127.87,0,82.37,0v31.11c0,1.01-1.18,1.57-1.95.92Z"/>
    </g>
  </g>
</svg>