<?xml version="1.0" encoding="UTF-8"?>
<svg id="Layer_2" data-name="Layer 2" xmlns="http://www.w3.org/2000/svg" viewBox="0 0 632.74 254.13">
  <defs>
    <style>
      .cls-1 {
        fill: #8dc63f;
      }

      .cls-2 {
        fill: #00a3de;
      }
    </style>
  </defs>
  <g id="Layer_2-2" data-name="Layer 2">
    <g>
      <path class="cls-2" d="M617.8,0h-350.77v83.49c5.23-2.03,10.91-3.16,16.85-3.16,25.77,0,46.73,20.96,46.73,46.73s-20.96,46.73-46.73,46.73c-5.94,0-11.62-1.13-16.85-3.15v83.49h350.77c8.25,0,14.94-6.69,14.94-14.94V14.94c0-8.25-6.69-14.94-14.94-14.94Z"/>
      <path class="cls-1" d="M283.87,87.81c-9.19,0-17.63,3.16-24.32,8.45V0H14.94C6.69,0,0,6.69,0,14.94v224.25c0,8.25,6.69,14.94,14.94,14.94h244.61v-96.26c6.69,5.29,15.13,8.45,24.32,8.45,21.68,0,39.26-17.58,39.26-39.26s-17.58-39.26-39.26-39.26Z"/>
    </g>
  </g>
</svg>