<?xml version="1.0" encoding="UTF-8"?>
<svg id="Layer_2" data-name="Layer 2" xmlns="http://www.w3.org/2000/svg" viewBox="0 0 537.99 231.21">
  <defs>
    <style>
      .cls-1 {
        fill: none;
      }

      .cls-2 {
        fill: #8dc63f;
      }

      .cls-3 {
        fill: #00a3de;
      }
    </style>
  </defs>
  <g id="Layer_2-2" data-name="Layer 2">
    <g>
      <g>
        <path class="cls-2" d="M83.7,112.45l15.44-45.43c3.17-9.34,11.94-15.61,21.8-15.61l-27.3,77.1h-7.58c-7.31,0-13.82-4.6-16.26-11.49l-17.73-50.07c-2.68-7.59,2.94-15.54,10.99-15.54l20.64,61.05ZM144.65,128.39c-8.5,0-15.4-6.89-15.4-15.4v-46.3c0-8.5,6.89-15.4,15.4-15.4v77.1ZM212.19,51.13v1.02c0,6.19-5.02,11.21-11.21,11.21h-10.08v64.87h-4.19c-6.19,0-11.21-5.02-11.21-11.21v-53.66h-9.98c-6.19,0-11.21-5.02-11.21-11.21v-1.02h57.88ZM258.57,113.11h-30.9l-2.48,7.06c-1.78,5.06-6.56,8.45-11.93,8.45h-7.32l25.33-67.99c1.84-4.95,6.57-8.23,11.85-8.23s10.02,3.29,11.86,8.25l25.22,67.98h-7.26c-5.39,0-10.2-3.42-11.95-8.52l-2.41-6.99ZM254.42,101.42l-11.36-32.54-11.36,32.54h22.71ZM329.72,116.59c0,6.51-5.28,11.79-11.8,11.79h-17.69c-6.51,0-11.79-5.28-11.79-11.79v-53.51c0-6.51,5.28-11.79,11.79-11.79h3.6v65.3h25.88ZM354.4,128.39c-8.5,0-15.4-6.89-15.4-15.4v-46.3c0-8.5,6.89-15.4,15.4-15.4v77.1ZM421.95,51.13v1.02c0,6.19-5.02,11.21-11.21,11.21h-10.08v64.87h-4.19c-6.19,0-11.21-5.02-11.21-11.21v-53.66h-9.98c-6.19,0-11.21-5.02-11.21-11.21v-1.02h57.88ZM486.59,51.36l-26.1,50.12v26.97h-4.79c-5.92,0-10.71-4.8-10.71-10.71v-16.26l-18.01-34.45c-3.73-7.13,1.44-15.68,9.49-15.68l16.38,33.74,13.45-27.71c1.79-3.69,5.54-6.03,9.64-6.03h10.65Z"/>
        <path class="cls-3" d="M78.26,170.92c-.25,2.99-1.37,5.33-3.36,7.02-2.04,1.64-4.73,2.47-8.07,2.47-3.89,0-6.85-1.17-8.89-3.51-2.04-2.24-3.06-5.55-3.06-9.94s1.05-7.85,3.14-10.09c2.14-2.34,5.23-3.51,9.26-3.51,3.29,0,5.9.82,7.85,2.47,1.84,1.6,2.89,3.84,3.14,6.73h-3.21c-1.2,0-2.04-.52-2.54-1.57-.35-.65-.77-1.22-1.27-1.72-1-.75-2.32-1.12-3.96-1.12-2.29,0-4.06.75-5.31,2.24-1.2,1.49-1.79,3.69-1.79,6.58s.6,4.93,1.79,6.43c1.15,1.55,2.86,2.32,5.16,2.32,1.59,0,2.91-.4,3.96-1.2.95-.75,1.62-1.94,2.02-3.59h5.16ZM88.88,166.96c0-4.18,1.09-7.5,3.29-9.94,2.34-2.44,5.4-3.66,9.19-3.66s6.8,1.22,9.19,3.66c2.24,2.49,3.36,5.8,3.36,9.94s-1.12,7.42-3.36,9.86c-2.29,2.39-5.35,3.59-9.19,3.59s-6.95-1.2-9.19-3.59c-2.19-2.39-3.29-5.68-3.29-9.86ZM94.18,166.96c0,2.89.62,5.08,1.87,6.58,1.25,1.55,3.01,2.32,5.31,2.32s4.01-.77,5.3-2.32c1.3-1.59,1.94-3.78,1.94-6.58s-.65-5.01-1.94-6.65c-1.3-1.54-3.06-2.32-5.3-2.32s-4.06.77-5.31,2.32c-1.25,1.55-1.87,3.76-1.87,6.65ZM125.05,179.89v-23.01c0-.75.26-1.38.78-1.91.52-.52,1.16-.81,1.91-.86h5.16l5.08,19.65,5.08-19.65h7.85v25.78h-4.93v-20.77l-5.23,20.77h-5.45l-5.31-20.77v20.77h-4.93ZM162.12,179.89v-23.01c0-.75.26-1.38.78-1.91.52-.52,1.16-.81,1.91-.86h5.16l5.08,19.65,5.08-19.65h7.85v25.78h-4.93v-20.77l-5.23,20.77h-5.45l-5.31-20.77v20.77h-4.93ZM204.56,154.12v16.07c0,1.99.37,3.46,1.12,4.41.8.9,2.07,1.35,3.81,1.35s2.96-.45,3.81-1.35c.8-.9,1.2-2.36,1.2-4.41v-16.07h5.3v16.66c0,3.19-.9,5.6-2.69,7.25-1.64,1.64-4.18,2.47-7.62,2.47s-5.98-.82-7.62-2.47c-1.79-1.64-2.69-4.06-2.69-7.25v-13.82c0-.75.26-1.41.78-1.98.52-.57,1.16-.86,1.91-.86h2.69ZM230.72,179.82v-22.94c0-.75.26-1.38.78-1.91.52-.52,1.16-.81,1.91-.86h2.84l10.46,17.71v-17.71h5.23v25.7h-5.45l-10.53-17.63v17.63h-5.23ZM262.94,179.81v-23.01c0-.75.26-1.38.78-1.91.52-.52,1.16-.78,1.91-.78h2.62v25.7h-5.31ZM286.03,179.81v-21.14h-7.62v-1.87c0-.75.26-1.38.78-1.91.52-.52,1.16-.78,1.91-.78h17.78v4.56h-7.55v21.14h-5.3ZM324.45,179.81h-5.31v-9.56l-9.34-16.14h6.5l5.45,11.06,4.41-9.56c.5-1,1.32-1.49,2.47-1.49h4.26l-8.44,16.14v9.56ZM385.43,170.92c-.25,2.99-1.37,5.33-3.36,7.02-2.04,1.64-4.73,2.47-8.07,2.47-3.89,0-6.85-1.17-8.89-3.51-2.04-2.24-3.06-5.55-3.06-9.94s1.05-7.85,3.14-10.09c2.14-2.34,5.23-3.51,9.26-3.51,3.29,0,5.9.82,7.85,2.47,1.84,1.6,2.89,3.84,3.14,6.73h-3.21c-1.2,0-2.04-.52-2.54-1.57-.35-.65-.77-1.22-1.27-1.72-1-.75-2.32-1.12-3.96-1.12-2.29,0-4.06.75-5.31,2.24-1.2,1.49-1.79,3.69-1.79,6.58s.6,4.93,1.79,6.43c1.15,1.55,2.86,2.32,5.16,2.32,1.59,0,2.91-.4,3.96-1.2.95-.75,1.62-1.94,2.02-3.59h5.16ZM407.56,154.1h4.18l9.34,25.7h-5.6l-1.72-5.31h-10.01l-1.64,5.31h-5.6l8.52-23.98c.45-1.15,1.3-1.72,2.54-1.72ZM408.76,159.26l-3.59,10.91h7.17l-3.59-10.91ZM432.23,179.81v-23.01c0-.75.26-1.38.78-1.91.52-.52,1.16-.78,1.91-.78h9.79c2.79,0,4.86.6,6.2,1.79,1.39,1.25,2.09,3.06,2.09,5.45,0,1.59-.35,2.91-1.05,3.96-.6,1-1.55,1.72-2.84,2.17,1.15.4,1.94,1,2.39,1.79.45.75.72,2.02.82,3.81l.15,3.06v.97c0,.35.02.67.07.97.15.9.45,1.47.9,1.72h-5.83c-.25-.5-.4-1.02-.45-1.57-.1-.8-.15-1.35-.15-1.64l-.07-2.76c-.1-1.49-.4-2.56-.9-3.21-.55-.55-1.52-.82-2.91-.82h-5.6v10.01h-5.31ZM437.53,165.31h6.2c1.35,0,2.34-.27,2.99-.82.65-.55.97-1.39.97-2.54s-.32-1.99-.97-2.54c-.6-.6-1.49-.9-2.69-.9h-6.5v6.8ZM464.44,179.81v-23.01c0-.75.26-1.38.78-1.91.52-.52,1.16-.78,1.91-.78h15.99v4.41h-13.45v5.53h10.01v1.72c0,.75-.26,1.38-.78,1.91-.52.52-1.16.78-1.91.78h-7.32v6.58h13.45v4.78h-18.68Z"/>
      </g>
      <path class="cls-1" d="M0,0v231.21h537.99V0H0Z"/>
    </g>
  </g>
</svg>