<?xml version="1.0" encoding="UTF-8"?>
<svg id="Layer_2" data-name="Layer 2" xmlns="http://www.w3.org/2000/svg" viewBox="0 0 748.47 284.77">
  <defs>
    <style>
      .cls-1 {
        fill: none;
      }

      .cls-2 {
        fill: #8dc63f;
      }

      .cls-3 {
        fill: #00a3de;
      }
    </style>
  </defs>
  <g id="Layer_2-2" data-name="Layer 2">
    <g>
      <g>
        <g>
          <path class="cls-2" d="M124.16,120.9c.21.29.37.59.45.82-5.82,4.97-9.52,12.39-9.52,20.67,0,3.4.61,6.68,1.78,9.68-.16.11-.32.24-.53.37-1.81,1.06-3.48,3.11-5.27,3.16-1.41.05-2.95-2.18-4.39-3.46-8.03-7.02-19.65-7.37-28.19-.8-8.03,6.17-10.72,17.63-5.93,26.84,1.41,2.71.9,3.91-1.46,5.29-.93.53-3.62,2.34-6.7,4.44-.61-.9-1.25-1.86-1.89-2.82-20.72-38.78-10.67-86.62,23.86-113.8,2.45-1.94,2.47-1.94,4.34.8,3.38,4.95,6.76,9.89,10.32,15.08,6.68-8.62,11.41-10.69,18.14-8.22,5.21,1.91,8.96,7.61,8.64,13.11-.43,6.99-4.44,10.85-14.12,13.27.51.85.93,1.68,1.44,2.42,2.98,4.39,5.96,8.8,9.04,13.14Z"/>
          <path class="cls-3" d="M206.1,111.75c.35,2.66.13,5.61-.72,8.14-1.84,5.43-7.63,8.83-13.19,8.4-6.99-.56-10.82-4.49-13.24-13.96-5.24,3.56-10.4,7.07-15.74,10.72-4.97-6.01-12.5-9.84-20.93-9.84-3.62,0-7.05.69-10.21,1.99-.05-.11-.13-.21-.21-.32-1.46-2.37-3.09-4.6-4.76-7.05,5.69-4.6,8.94-10.29,9.12-17.42.13-4.92-1.33-9.47-4.31-13.43-6.7-8.99-16.52-10.85-29.63-5.43-1.97-2.85-3.96-5.74-6.22-9.04,16.99-10,35.13-14.15,54.47-12.29,26.94,2.58,48.43,15.19,65.13,36.89-6.12,4.2-11.97,8.24-18.19,12.53,4.55,2.26,7.98,5.27,8.64,10.11Z"/>
          <path class="cls-3" d="M187.75,220.66c-18.99,10.69-38.96,14.6-60.13,11.04-23.01-3.86-41.68-15.08-56.33-33.22-.77-.96-1.52-1.89-2.23-2.87.08-.05.16-.11.24-.19,6.38-4.36,12.47-8.59,18.7-12.85-8.59-6.36-10.88-11.33-8.43-17.93,2.05-5.51,7.63-9.2,13.24-8.78,7.21.56,11.12,4.73,13.06,14.26.96-.56,1.83-1.04,2.66-1.6,3.96-2.69,7.95-5.37,11.86-8.14.37-.27.69-.48,1.01-.61,4.97,5.98,12.5,9.79,20.88,9.79,3.27,0,6.44-.59,9.34-1.65.21.24.45.51.66.85,2.69,4.02,2.77,3.96-.32,7.77-6.33,7.79-6.57,18.78-.59,26.94,5.88,8.03,16.65,11.04,25.93,7.23.88-.37,1.76-.74,2.82-1.17,2.5,3.62,4.95,7.18,7.63,11.12Z"/>
          <path class="cls-2" d="M195.09,215.74c-4.47-6.49-8.83-12.85-13.3-19.28-5.08,5.69-10.53,9.55-18.22,6.2-5.21-2.29-8.19-7.42-7.9-13.03.32-6.36,3.99-10.29,12.42-13.11-1.57-2.34-3.09-4.63-4.6-6.92-1.38-2.07-3.75-4.04-4.04-6.14,6.12-4.97,10-12.55,10-21.06,0-3.51-.66-6.84-1.86-9.89.27-.27.61-.51,1.04-.74,2.1-1.22,4.04-3.72,6.09-3.75,1.78-.03,3.64,2.58,5.45,4.02,7.85,6.12,18.86,6.12,26.73,0,7.87-6.12,10.61-16.65,6.65-25.85-.51-1.2-1.12-2.34-1.86-3.83,2.77-1.89,5.51-3.8,8.27-5.69,22.47,34.65,16.04,90.53-24.87,119.1Z"/>
        </g>
        <g>
          <path class="cls-2" d="M291.14,152.1l15.54-45.73c3.19-9.4,12.02-15.72,21.94-15.72l-27.48,77.61h-7.63c-7.35,0-13.91-4.63-16.37-11.56l-17.85-50.4c-2.7-7.64,2.96-15.65,11.06-15.65l20.78,61.45ZM352.49,168.14c-8.56,0-15.5-6.94-15.5-15.5v-46.61c0-8.56,6.94-15.5,15.5-15.5v77.61ZM420.48,90.38v1.03c0,6.23-5.05,11.28-11.28,11.28h-10.15v65.29h-4.22c-6.23,0-11.28-5.05-11.28-11.28v-54.01h-10.04c-6.23,0-11.28-5.05-11.28-11.28v-1.03h58.26ZM467.17,152.76h-31.11l-2.5,7.11c-1.79,5.09-6.61,8.5-12.01,8.5h-7.36l25.49-68.44c1.86-4.98,6.61-8.29,11.93-8.29s10.08,3.31,11.94,8.3l25.39,68.43h-7.3c-5.43,0-10.26-3.45-12.03-8.58l-2.43-7.03ZM462.99,141l-11.43-32.76-11.43,32.76h22.86ZM538.79,156.26c0,6.56-5.32,11.87-11.87,11.87h-17.81c-6.56,0-11.87-5.31-11.87-11.87v-53.86c0-6.56,5.31-11.87,11.87-11.87h3.63v65.74h26.05ZM563.63,168.14c-8.56,0-15.5-6.94-15.5-15.5v-46.61c0-8.56,6.94-15.5,15.5-15.5v77.61ZM631.62,90.38v1.03c0,6.23-5.05,11.28-11.28,11.28h-10.15v65.29h-4.22c-6.23,0-11.28-5.05-11.28-11.28v-54.01h-10.04c-6.23,0-11.28-5.05-11.28-11.28v-1.03h58.26ZM696.69,90.6l-26.27,50.46v27.15h-4.83c-5.96,0-10.78-4.83-10.78-10.78v-16.37l-18.13-34.67c-3.75-7.18,1.45-15.78,9.56-15.78l16.49,33.97,13.54-27.89c1.8-3.72,5.57-6.07,9.7-6.07h10.72Z"/>
          <path class="cls-3" d="M285.66,210.95c-.25,3.01-1.38,5.37-3.38,7.07-2.06,1.66-4.76,2.48-8.12,2.48-3.91,0-6.89-1.18-8.95-3.54-2.06-2.26-3.08-5.59-3.08-10s1.05-7.9,3.16-10.15c2.16-2.36,5.26-3.53,9.33-3.53,3.31,0,5.94.83,7.9,2.48,1.85,1.61,2.91,3.86,3.16,6.77h-3.23c-1.2,0-2.06-.53-2.56-1.58-.35-.65-.78-1.23-1.28-1.73-1-.75-2.33-1.13-3.99-1.13-2.31,0-4.09.75-5.34,2.26-1.2,1.5-1.8,3.71-1.8,6.62s.6,4.96,1.8,6.47c1.15,1.56,2.88,2.33,5.19,2.33,1.6,0,2.93-.4,3.99-1.2.95-.75,1.63-1.95,2.03-3.61h5.19ZM296.35,206.96c0-4.21,1.1-7.55,3.31-10,2.36-2.46,5.44-3.69,9.25-3.69s6.84,1.23,9.25,3.69c2.26,2.51,3.38,5.84,3.38,10s-1.13,7.47-3.38,9.93c-2.31,2.41-5.39,3.61-9.25,3.61s-6.99-1.2-9.25-3.61c-2.21-2.41-3.31-5.72-3.31-9.93ZM301.69,206.96c0,2.91.63,5.11,1.88,6.62,1.25,1.56,3.03,2.33,5.34,2.33s4.04-.78,5.34-2.33c1.3-1.6,1.96-3.81,1.96-6.62s-.65-5.04-1.96-6.69c-1.3-1.55-3.08-2.33-5.34-2.33s-4.09.78-5.34,2.33c-1.25,1.56-1.88,3.79-1.88,6.69ZM332.76,219.99v-23.17c0-.75.26-1.39.79-1.92.53-.53,1.17-.81,1.92-.87h5.19l5.11,19.78,5.11-19.78h7.9v25.95h-4.96v-20.91l-5.27,20.91h-5.49l-5.34-20.91v20.91h-4.96ZM370.07,219.99v-23.17c0-.75.26-1.39.79-1.92.53-.53,1.17-.81,1.92-.87h5.19l5.11,19.78,5.11-19.78h7.9v25.95h-4.96v-20.91l-5.27,20.91h-5.49l-5.34-20.91v20.91h-4.96ZM412.8,194.04v16.17c0,2.01.38,3.49,1.13,4.44.8.9,2.08,1.35,3.84,1.35s2.98-.45,3.84-1.35c.8-.9,1.2-2.38,1.2-4.44v-16.17h5.34v16.77c0,3.21-.9,5.64-2.71,7.3-1.66,1.66-4.21,2.48-7.67,2.48s-6.02-.83-7.67-2.48c-1.8-1.65-2.71-4.08-2.71-7.3v-13.91c0-.75.26-1.42.79-1.99.53-.57,1.17-.87,1.92-.87h2.71ZM439.13,219.91v-23.09c0-.75.26-1.39.79-1.92.53-.53,1.17-.81,1.92-.87h2.86l10.53,17.83v-17.83h5.26v25.87h-5.49l-10.6-17.75v17.75h-5.27ZM471.56,219.9v-23.17c0-.75.26-1.39.79-1.92.53-.53,1.17-.79,1.92-.79h2.63v25.87h-5.34ZM494.81,219.9v-21.28h-7.67v-1.88c0-.75.26-1.39.79-1.92.53-.53,1.17-.79,1.92-.79h17.9v4.59h-7.6v21.28h-5.34ZM533.47,219.9h-5.34v-9.63l-9.4-16.25h6.54l5.49,11.13,4.44-9.63c.5-1,1.33-1.5,2.48-1.5h4.29l-8.5,16.25v9.63ZM594.86,210.95c-.25,3.01-1.38,5.37-3.38,7.07-2.06,1.66-4.76,2.48-8.12,2.48-3.91,0-6.89-1.18-8.95-3.54-2.06-2.26-3.08-5.59-3.08-10s1.05-7.9,3.16-10.15c2.16-2.36,5.26-3.53,9.33-3.53,3.31,0,5.94.83,7.9,2.48,1.85,1.61,2.91,3.86,3.16,6.77h-3.23c-1.2,0-2.06-.53-2.56-1.58-.35-.65-.78-1.23-1.28-1.73-1-.75-2.33-1.13-3.99-1.13-2.31,0-4.09.75-5.34,2.26-1.2,1.5-1.8,3.71-1.8,6.62s.6,4.96,1.8,6.47c1.15,1.56,2.88,2.33,5.19,2.33,1.6,0,2.93-.4,3.99-1.2.95-.75,1.63-1.95,2.03-3.61h5.19ZM617.14,194.02h4.21l9.4,25.87h-5.64l-1.73-5.34h-10.08l-1.65,5.34h-5.64l8.57-24.14c.45-1.15,1.3-1.73,2.56-1.73ZM618.34,199.21l-3.61,10.98h7.22l-3.61-10.98ZM641.96,219.9v-23.17c0-.75.26-1.39.79-1.92.53-.53,1.17-.79,1.92-.79h9.85c2.81,0,4.89.6,6.24,1.81,1.4,1.25,2.11,3.08,2.11,5.49,0,1.6-.35,2.93-1.05,3.99-.6,1-1.56,1.73-2.86,2.18,1.15.4,1.96,1,2.41,1.8.45.75.73,2.03.83,3.84l.15,3.08v.98c0,.35.02.68.08.98.15.9.45,1.48.9,1.73h-5.87c-.25-.5-.4-1.03-.45-1.58-.1-.8-.15-1.35-.15-1.65l-.08-2.78c-.1-1.5-.4-2.58-.9-3.23-.55-.55-1.53-.83-2.93-.83h-5.64v10.08h-5.34ZM647.31,205.31h6.24c1.35,0,2.36-.28,3.01-.83.65-.55.98-1.4.98-2.56s-.33-2-.98-2.56c-.6-.6-1.5-.9-2.71-.9h-6.54v6.84ZM674.39,219.9v-23.17c0-.75.26-1.39.79-1.92.53-.53,1.17-.79,1.92-.79h16.09v4.44h-13.54v5.57h10.08v1.73c0,.75-.26,1.39-.79,1.92-.53.53-1.17.79-1.92.79h-7.37v6.62h13.54v4.81h-18.8Z"/>
        </g>
      </g>
      <path class="cls-1" d="M0,0v284.77h748.47V0H0Z"/>
    </g>
  </g>
</svg>