<?xml version="1.0" encoding="UTF-8"?>
<svg id="Layer_2" data-name="Layer 2" xmlns="http://www.w3.org/2000/svg" viewBox="0 0 378.59 378.92">
  <defs>
    <style>
      .cls-1 {
        fill: none;
      }

      .cls-2 {
        fill: #8dc63f;
      }

      .cls-3 {
        fill: #00a3de;
      }
    </style>
  </defs>
  <g id="Layer_2-2" data-name="Layer 2">
    <g>
      <g>
        <path class="cls-2" d="M164.04,159.51c.3.41.52.82.63,1.15-8.12,6.93-13.27,17.28-13.27,28.81,0,4.75.85,9.31,2.48,13.5-.22.15-.44.33-.74.52-2.52,1.48-4.86,4.34-7.34,4.41-1.97.07-4.12-3.04-6.12-4.82-11.2-9.79-27.4-10.27-39.31-1.11-11.2,8.6-14.94,24.58-8.27,37.41,1.97,3.78,1.26,5.45-2.04,7.38-1.3.74-5.04,3.26-9.34,6.19-.85-1.26-1.74-2.6-2.63-3.93-28.89-54.06-14.87-120.77,33.26-158.67,3.41-2.71,3.45-2.71,6.04,1.11,4.71,6.9,9.42,13.79,14.39,21.02,9.31-12.01,15.91-14.91,25.29-11.46,7.27,2.67,12.5,10.6,12.05,18.28-.59,9.75-6.19,15.13-19.69,18.5.7,1.19,1.3,2.34,2,3.37,4.15,6.12,8.31,12.27,12.61,18.32Z"/>
        <path class="cls-3" d="M278.28,146.75c.48,3.71.19,7.82-1,11.35-2.56,7.56-10.64,12.31-18.39,11.72-9.75-.78-15.09-6.27-18.47-19.47-7.3,4.97-14.5,9.86-21.95,14.94-6.93-8.38-17.43-13.72-29.18-13.72-5.04,0-9.83.96-14.24,2.78-.07-.15-.19-.3-.3-.44-2.04-3.3-4.3-6.41-6.64-9.83,7.94-6.42,12.46-14.35,12.72-24.29.19-6.86-1.85-13.2-6.01-18.73-9.34-12.53-23.03-15.13-41.31-7.56-2.74-3.97-5.52-8.01-8.68-12.61,23.69-13.94,48.98-19.73,75.94-17.13,37.56,3.6,67.52,21.17,90.81,51.43-8.53,5.86-16.69,11.49-25.36,17.46,6.34,3.15,11.12,7.34,12.05,14.09Z"/>
        <path class="cls-3" d="M252.7,298.59c-26.48,14.91-54.32,20.36-83.84,15.39-32.07-5.38-58.1-21.02-78.54-46.31-1.08-1.33-2.11-2.63-3.11-4,.11-.07.22-.15.33-.26,8.9-6.08,17.39-11.98,26.07-17.91-11.98-8.86-15.17-15.8-11.75-24.99,2.86-7.68,10.64-12.83,18.47-12.24,10.05.78,15.5,6.6,18.21,19.87,1.33-.78,2.56-1.45,3.71-2.22,5.52-3.75,11.09-7.49,16.54-11.35.52-.37.96-.67,1.41-.85,6.93,8.34,17.43,13.65,29.11,13.65,4.56,0,8.97-.82,13.02-2.3.3.33.63.7.93,1.19,3.75,5.6,3.86,5.52-.44,10.83-8.83,10.86-9.16,26.18-.82,37.56,8.19,11.2,23.21,15.39,36.15,10.09,1.22-.52,2.45-1.04,3.93-1.63,3.49,5.04,6.9,10.01,10.64,15.5Z"/>
        <path class="cls-2" d="M262.93,291.73c-6.23-9.05-12.31-17.91-18.54-26.88-7.08,7.93-14.68,13.31-25.4,8.64-7.27-3.19-11.42-10.35-11.01-18.17.44-8.86,5.56-14.35,17.32-18.28-2.19-3.26-4.3-6.45-6.41-9.64-1.93-2.89-5.23-5.64-5.64-8.57,8.53-6.93,13.94-17.5,13.94-29.37,0-4.89-.93-9.53-2.6-13.79.37-.37.85-.7,1.45-1.04,2.93-1.71,5.64-5.19,8.49-5.23,2.48-.04,5.08,3.6,7.6,5.6,10.94,8.53,26.29,8.53,37.27,0,10.98-8.53,14.79-23.21,9.27-36.04-.7-1.67-1.56-3.26-2.6-5.34,3.86-2.63,7.68-5.3,11.53-7.94,31.33,48.32,22.36,126.22-34.67,166.04Z"/>
      </g>
      <path class="cls-1" d="M0,0v378.92h378.59V0H0Z"/>
    </g>
  </g>
</svg>